# xmcd CD database file
#
# Track frame offsets:
#	150
#	15309
#	28232
#	46029
#	64344
#	89260
#	115500
#	133102
#	153685
#	172620
#	193565
#	221141
#	240276
#	261232
#	279067
#
# Disc length: 4071 seconds
#
# Revision: 0
# Processed by: cddbd v1.5.1PL0 Copyright (c) Steve Scherf et al.
# Submitted via: CDex 1.51
#
DISCID=bf0fe50f
DTITLE=Various Artist - 止まれ　この先感動あり
DYEAR=2003
DGENRE=Rock
TTITLE0=Kefi - 光
TTITLE1=HIKARU - The Cat Stole My Love
TTITLE2=ライノセラス - Because
TTITLE3=稲田真裕 - 五条
TTITLE4=Cassis - Tomato Juice
TTITLE5=Message From Otherside - Paradise
TTITLE6=Noir - 帰る場所
TTITLE7=伊達倶楽部 - 夜を抱きしめて
TTITLE8=The Dagger - Days〜自己嫌悪の夜〜
TTITLE9=Recti Drive - Don't Dead ≠ Alive
TTITLE10=River Of Tears - One Night Stand
TTITLE11=Cherry Blossom - Eternal
TTITLE12=Orange55cafe - サマーエンド
TTITLE13=BREEZE - 君に巡り逢えた奇跡
TTITLE14=Conqrete - Pafe Line
EXTD=YEAR: 2003
EXTT0=
EXTT1=
EXTT2=
EXTT3=
EXTT4=
EXTT5=
EXTT6=
EXTT7=
EXTT8=
EXTT9=
EXTT10=
EXTT11=
EXTT12=
EXTT13=
EXTT14=
PLAYORDER=
